<?xml version="1.0" encoding="utf-8"?>
<!-- Generator: Adobe Illustrator 18.1.1, SVG Export Plug-In . SVG Version: 6.00 Build 0)  -->
<svg version="1.1" id="Слой_1" xmlns="http://www.w3.org/2000/svg" xmlns:xlink="http://www.w3.org/1999/xlink" x="0px" y="0px"
	 viewBox="0 0 768.6 135.2" enable-background="new 0 0 768.6 135.2" xml:space="preserve">
<path fill="#1565C0" d="M563.3,71.7c0,9.3,7.5,16.8,16.8,16.8c9.3,0,16.8-7.5,16.8-16.8c0-9.3-7.5-16.8-16.8-16.8
	C570.8,54.8,563.3,62.4,563.3,71.7"/>
<path fill="#212121" d="M577.9,22.5c-0.5,2.7-0.9,5.5-1.3,8.2c1.3-0.1,2.7-0.2,4.2-0.2c11.2,0,20.5,3.9,28.1,11.7
	c5.8,5.9,9.4,13.1,10.8,21.4H643h0c-1-8.6-3.7-16.6-7.9-24.1c-5.6-9.7-13.3-17.4-23.1-23c-9.7-5.7-20.3-8.5-31.6-8.5h-0.1
	C579.9,13.1,578.7,18.3,577.9,22.5"/>
<path fill="#1565C0" d="M649.4,48.1c0,0.3-0.2,0.5-0.5,0.6c-0.2,0.1-0.3,0.2-0.3,0.5c0.2,2-0.1,4.2,0.1,6.2c0.1,0.9-0.2,1.6-0.8,2.3
	c-1.5,1.5-2.1,3.5-3.6,4.9c-0.7,0.7-0.7,0.8-1.3,1.6c-0.9-0.2-3.8-0.2-4.9-0.2c-0.4,0-0.8,0-1.1,0.1c-0.4-0.9-0.9-1.9-1.6-2.8
	c2.5,3.2,0-5.4-0.6-7.1c-1.5-4.6-4.3-8.3-7.4-12.2c-5.9-7.4-11.8-13.6-21-18.2c-18.2-9.3-35.3-8.5-54.2-1.3c-3.8,1.4-6,3.8-7.1,6.5
	c-2.3,1.5-4.4,3.2-6.4,4.9c-4.5,3.8-8.4,9.2-9.1,14.4c-1.8-0.6-3.7-0.8-5.5-0.7c0.1-0.4,0.1-0.8-0.2-1.3c-0.6-1-1.6-1.1-2.8-1.1
	c-2.1,0.1-4.1,0.1-6.2,0.2c-0.9,0-0.9-0.3-0.9-0.9c0.2-0.6,0.8-0.9,0.9-1.4c0.8-1.8,1.8-3.4,2.6-5.1c0.5-1.1,1.4-2,2.6-2.5
	c0.6-0.2,1.2-0.6,2-0.8c3-1.3,6.2-2.6,9.3-3.9c0.9-0.4,1.7-1,1.6-1.9c0-0.9-0.5-1.7-1.6-2.1c-0.9-0.4-1.8-0.6-2.8-0.9
	c-1.5-0.3-3-1-4.3-1.4c-0.6-0.3-0.6-0.5-0.1-0.9c0.3-0.2,0.6-0.4,0.9-0.4c0.3,0,0.6-0.1,0.9-0.4l5.8-4.6c0.6-0.5,1.2-0.7,2-0.7
	c2.4-0.2,4.8-0.2,7.2-0.4c2-0.1,4.1-0.1,6-0.3c0.6,0,1.2-0.1,1.7-0.6c1.1-1.4,1.3-2.1-0.2-3.3c-1.6-1.3-3.4-2.4-4.8-3.8
	c-0.3-0.3-0.9-0.5-0.4-0.9c0.3-0.4,0.9-0.5,1.5-0.2c0.3,0.1,0.4,0.1,0.8,0c2.6-0.8,5-1.6,7.6-2.6c0.8-0.2,1.4-0.2,2.1-0.1
	c4.5,1.3,8.8,2.6,13.2,3.7c1.5,0.4,2.4-0.1,2.9-1.3c0.2-0.5,0-1.1-0.2-1.7c-0.8-1.7-1.8-3.4-2.7-5.2c-0.1-0.3-0.6-0.7-0.1-0.8
	c0.5-0.2,1.1-0.3,1.5,0c0.3,0.3,0.4,0.4,0.7,0.1c0.3-0.1,0.6-0.1,0.9-0.1l6.7,0.2c1,0,1.9,0.3,2.7,1c3.1,2.3,6.3,4.6,9.4,6.9
	c0.6,0.5,1.3,0.8,2.2,0.8c1,0.2,2-0.4,2.1-1.5l0-0.9c-0.1-1.7-0.2-3.3-0.1-5.1c0-0.3-0.1-0.8,0.5-0.9c0.5-0.1,1.1-0.1,1.3,0.3
	c0.1,0.1,0.3,0.3,0.4,0.3c2.7,0.6,5.2,1.8,7.7,2.7c0.4,0.1,0.9,0.5,1.2,0.9c1.8,3.2,3.8,6.3,5.7,9.6c0.4,0.8,0.9,1.4,1.6,2
	c0.9,0.5,2.4,0.6,2.9-0.2c0.5-0.7,1.1-1.6,1.3-2.5c0.2-1.5,1.1-2.8,1.6-4.1c0.2-0.2,0.5-0.6,0.8-0.4c0.4,0.3,1,0.5,1,1.2
	c0,0.3,0,0.5,0.3,0.6c2.1,1.5,3.6,3.2,5.6,4.6c0.6,0.4,0.9,0.9,1,1.6c0.1,1.7,0.3,3.3,0.4,4.8c0.2,2.3,0.5,4.7,0.7,7
	c0.1,0.6,0.4,1.2,1.2,1.6c1.2,0.5,2.1,0.4,3.2-0.3c0.8-0.5,1.1-1.2,1.7-1.8c0.8-0.9,1.9-1.7,2.6-2.6c0.6-0.6,0.6-0.6,1.2,0.2
	c0.4,0.8,0.1,1.7,0.5,2.4c1,1.6,1.5,3.2,2.5,4.8c0.6,1,0.5,2,0.2,3.2c-1.3,3.4-2.6,6.8-3.9,10.2c-0.3,0.8-0.4,1.6,0.2,2.3
	c0.9,0.8,1.9,0.8,3,0.5c1.1-0.2,2-0.7,2.9-1.2c1.1-0.6,2.4-0.9,3.8-1.3c0.3-0.1,0.6-0.4,0.9-0.1C649.6,47.3,649.4,47.7,649.4,48.1"
	/>
<path fill="#1565C0" d="M525.7,60.6c0,0.5,0.1,1,0.2,1.5c-0.6,0.5-1.3,1-1.9,1.5c-0.4,0-0.7-0.1-1.1-0.1c-0.8,0-1.6,0.1-2.3,0.2
	c-0.5-0.3,2.2,0.2,1.5,0.2c-1.1-0.1-2.1,0.1-3.1,0.3c-1.2,0.3-5.9-0.5-7.3-0.5c-0.3,0-0.3,0-0.9-0.2c-1.2-0.7-0.9-1-0.8-1.3
	c0.1-0.2,0.3-0.4,0.6-0.5c0.2-0.1,0.4-0.1,0.4-0.4c0.4-2,1.3-4,1.7-6c0.1-0.9,0.7-1.5,1.4-1.9c1.9-1,3.8-2.1,5.8-3
	c1.8-0.2,3.1-4.2,4-4.6c0.8,0.5,0.4,4.1,1.5,4.4c0.4,0.1,0.7,0.2,1.1,0.3c0.1,1,0.3,2.1,0.7,3.2C525.7,49.8,525.6,58.7,525.7,60.6"
	/>
<path fill="#1565C0" d="M587.5,26.3c0,1.8,0.2,3.7,0.3,5.5c-2.4-0.4-4.9-0.7-7.4-0.7c-11.2,0-20.5,3.9-28.1,11.7
	c-5.8,5.9-9.4,13.1-10.8,21.4h-23.4v0c1-8.6,3.6-16.6,7.9-24c5.6-9.7,13.3-17.4,23.1-23c9.7-5.7,20.3-8.5,31.5-8.5
	c2.1,0,4.2,0.1,6.2,0.3C586.6,14.8,586.8,20.6,587.5,26.3"/>
<path fill="#1565C0" d="M577.9,23.1c-0.5,2.7-0.9,5.5-1.3,8.2c1.3-0.1,2.7-0.2,4.2-0.2c11.2,0,20.5,3.9,28.1,11.7
	c5.8,5.9,9.4,13.1,10.8,21.4H643h0c-1-8.6-3.7-16.6-7.9-24.1c-5.6-9.7-13.3-17.4-23.1-23c-9.7-5.7-20.3-8.5-31.6-8.5h-0.1
	C579.9,13.7,578.7,18.9,577.9,23.1"/>
<path fill="#212121" d="M768.6,62.5c0,6.8-1.1,12.5-3.4,17.3c-2.3,4.7-5.6,8.7-10,11.7c-4.4,3.1-8.9,5.1-13.6,6.1
	c-4.7,1-11.8,1.4-21.6,1.4v32.7h-23.1V99c-10.1,0-18.4-1-24.9-3c-6.5-2-11.8-5.9-16-11.6c-4.2-5.6-6.2-12.7-6.2-21.3
	c0-8.1,1.6-14.8,5-20.4c3.3-5.5,8-9.6,14.2-12.2c6.1-2.6,15.4-3.9,27.9-3.9V11.1H720v15.6h5.1C754.1,26.7,768.6,38.6,768.6,62.5
	 M743,74.3c2.5-2.9,3.8-6.7,3.8-11.3c0-4.8-1.3-8.5-4-11.1c-2.6-2.6-8-4-16-4H720v30.8h7.6C735.4,78.6,740.5,77.2,743,74.3
	 M696.9,78.6V47.8h-5.3c-8.1,0-13.4,1.3-16.1,3.9c-2.7,2.6-4,6.4-4,11.4c0,5.8,1.6,9.9,4.9,12.1c3.3,2.2,8,3.4,14.3,3.4H696.9z"/>
<path fill="#212121" d="M503.1,26.5c3.4,5.5,5,12,5,19.6c0,8.4-2.2,15.4-6.6,21c-4.4,5.6-10.4,9.5-17.9,11.7
	c-4.4,1.3-12.5,1.9-24.2,1.9v51.1h-23V11.1h24.4c13.2,0,22.7,1.2,28.5,3.7C495.1,17.2,499.7,21.1,503.1,26.5 M484,53
	c1.3-1.9,1.9-4.2,1.9-6.9c0-4.7-1.8-8.1-5.4-10.2c-2.6-1.6-7.5-2.4-14.6-2.4h-6.5v24.7h7.3c5.8,0,9.7-0.4,12-1.2
	C480.9,56.2,482.7,54.8,484,53"/>
<path fill="#212121" d="M415,11.1v120.7h-23.2V32.6h-40.3v99.2h-23.3V11.1H415z"/>
<path fill="#212121" d="M274,11.1l46.4,120.7h-24.5L262.4,43l-34,88.7h-24.4l46.5-120.7H274z"/>
<path fill="#212121" d="M196.2,11.1v120.7h-23V56.2l-45,75.5h-20V11.1h23v78.1l45.6-78.1H196.2z"/>
<path fill="#212121" d="M86.8,11.1v120.7H63.6V32.6H23.3v99.2H0V11.1H86.8z"/>
<path fill="#212121" d="M587.5,117.6c0-1.8,0.2-3.7,0.3-5.5c-2.4,0.4-4.9,0.7-7.4,0.7c-11.2,0-20.5-3.9-28.1-11.7
	c-5.8-5.9-9.4-13.1-10.8-21.4h-23.4v0c1,8.6,3.6,16.6,7.9,24c5.6,9.7,13.3,17.4,23.1,23c9.7,5.7,20.3,8.5,31.5,8.5
	c2.1,0,4.2-0.1,6.2-0.3C586.6,129.1,586.8,123.3,587.5,117.6"/>
<path fill="#212121" d="M577.9,120.8c-0.5-2.7-0.9-5.5-1.3-8.2c1.3,0.1,2.7,0.2,4.2,0.2c11.2,0,20.5-3.9,28.1-11.7
	c5.8-5.9,9.4-13.1,10.8-21.4H643h0c-1,8.6-3.7,16.6-7.9,24.1c-5.6,9.7-13.3,17.4-23.1,23c-9.7,5.7-20.3,8.5-31.6,8.5h-0.1
	C579.9,130.2,578.7,125,577.9,120.8"/>
</svg>
